<?xml version="1.0" standalone="no"?><!DOCTYPE svg PUBLIC "-//W3C//DTD SVG 1.1//EN" "http://www.w3.org/Graphics/SVG/1.1/DTD/svg11.dtd"><svg t="1638794916089" class="icon" viewBox="0 0 1024 1024" version="1.1" xmlns="http://www.w3.org/2000/svg" p-id="5946" width="32" height="32" xmlns:xlink="http://www.w3.org/1999/xlink"><defs><style type="text/css"></style></defs><path d="M390.73792 286.72h242.52416a61.44 61.44 0 0 0 57.52832-39.87456l36.51584-97.3824A40.96 40.96 0 0 1 765.66528 122.88H798.72a61.44 61.44 0 0 1 61.44 61.44v532.48c0 135.72096-110.03904 245.76-245.76 245.76H409.6c-135.72096 0-245.76-110.03904-245.76-245.76V184.32a61.44 61.44 0 0 1 61.44-61.44h33.05472a40.96 40.96 0 0 1 38.35904 26.58304l36.51584 97.3824A61.44 61.44 0 0 0 390.73792 286.72z m80.24064 310.02624a44.7488 44.7488 0 0 1-55.0912 1.78176l-52.81792-38.46144a35.28704 35.28704 0 0 0-46.12096 3.91168 34.48832 34.48832 0 0 0-2.06848 45.71136l85.58592 105.22624a59.76064 59.76064 0 0 0 90.64448 3.072l217.12896-233.49248a32.256 32.256 0 0 0-0.55296-44.35968 33.11616 33.11616 0 0 0-44.99456-2.37568l-191.71328 158.98624zM444.12928 61.44h135.74144c23.92064 0 46.24384 11.53024 59.51488 30.72l8.84736 12.8a39.7312 39.7312 0 0 1 4.096 37.92896l-23.49056 56.64768C622.3872 215.10144 606.76096 225.28 589.4144 225.28h-154.8288c-17.34656 0-32.9728-10.19904-39.424-25.74336l-23.49056-56.64768a39.7312 39.7312 0 0 1 4.096-37.92896l8.84736-12.8A72.25344 72.25344 0 0 1 444.12928 61.44z" p-id="5947" fill="#52C41A"></path></svg>