<?xml version="1.0" standalone="no"?><!DOCTYPE svg PUBLIC "-//W3C//DTD SVG 1.1//EN" "http://www.w3.org/Graphics/SVG/1.1/DTD/svg11.dtd"><svg t="1652077270128" class="icon" viewBox="0 0 1024 1024" version="1.1" xmlns="http://www.w3.org/2000/svg" p-id="5384" width="128" height="128" xmlns:xlink="http://www.w3.org/1999/xlink"><defs><style type="text/css">@font-face { font-family: feedback-iconfont; src: url("//at.alicdn.com/t/font_1031158_u69w8yhxdu.woff2?t=1630033759944") format("woff2"), url("//at.alicdn.com/t/font_1031158_u69w8yhxdu.woff?t=1630033759944") format("woff"), url("//at.alicdn.com/t/font_1031158_u69w8yhxdu.ttf?t=1630033759944") format("truetype"); }
</style></defs><path d="M1022.554693 484.177841V311.463656v-9.394496h-0.722653c-5.058574-33.242061-36.855328-58.534933-74.43331-58.534933H75.878617C37.577982 243.534227 6.503881 268.8271 1.445307 302.06916H0V913.434016h0.722653c5.058574 33.242061 36.855328 58.534933 74.43331 58.534932H946.676076c38.300635 0 69.374735-25.292872 74.43331-58.534932h1.445307v-426.365562-2.890613z m0 0" fill="#F78161" p-id="5385"></path><path d="M1022.554693 448.045166V281.834862v-9.394495h-0.722653c-5.058574-31.796754-36.855328-56.366972-74.43331-56.366973H75.878617C37.577982 216.073394 6.503881 240.643613 1.445307 272.440367H0V645.32957h0.722653c5.058574 31.796754 36.855328 56.366972 74.43331 56.366972H946.676076c38.300635 0 69.374735-24.570219 74.43331-56.366972h1.445307v-195.116444-2.16796z m0 0" fill="#F95421" p-id="5386"></path><path d="M571.618913 690.134086c0 36.132675-26.738179 65.038814-59.98024 65.038814-33.242061 0-59.98024-28.90614-59.98024-65.038814s26.738179-65.038814 59.98024-65.038814c32.519407 0 59.98024 29.628793 59.98024 65.038814z m0 0M211.01482 770.348624c0 10.839802-7.949188 20.234298-18.788991 20.234298-10.117149 0-18.788991-8.671842-18.788991-20.234298V630.153846c0-10.839802 7.949188-20.234298 18.788991-20.234298 10.117149 0 18.788991 8.671842 18.788991 20.234298v140.194778z m637.380381 0c0 10.839802-7.949188 20.234298-18.788991 20.234298s-18.788991-8.671842-18.788991-20.234298V630.153846c0-10.839802 7.949188-20.234298 18.788991-20.234298s18.788991 8.671842 18.788991 20.234298v140.194778z m0 0" fill="#FFFFFF" p-id="5387"></path><path d="M699.528582 143.085392V66.484121 62.1482C697.360621 47.695131 685.798165 36.132675 672.067749 36.132675H351.209598c-13.730416 0-25.292872 11.562456-27.460833 26.015525h-0.722653V234.139732c2.16796 14.45307 13.730416 26.015526 27.460832 26.015526h18.788991v-9.394496-134.41355c1.445307-15.175723 10.117149-26.738179 20.956951-26.738179h240.643614c10.839802 0 19.511644 11.562456 20.956951 26.738179V260.155258h18.788991c13.730416 0 25.292872-11.562456 27.460833-26.015526h0.722653V144.530699c0.722653-0.722653 0.722653-1.445307 0.722654-1.445307z m0-99.003529" fill="#F95421" p-id="5388"></path><path d="M275.330981 349.764291c0 7.226535 2.16796 14.45307 6.503881 29.628793l29.628794 107.67537s0 2.16796 2.16796 5.058575c0 2.16796 0 5.058574 2.167961 10.117149 0-2.16796 2.16796-5.058574 2.16796-7.226535v-2.167961c0-2.16796 0-2.16796 2.167961-5.058574l29.628793-105.50741c4.335921-12.285109 4.335921-21.679605 6.503881-29.628793H426.365561c-6.503881 14.45307-8.671842 21.679605-13.730416 33.964714l-54.199012 146.698659c-4.335921 14.45307-6.503881 19.511644-8.671842 29.628793h-70.097389c-2.16796-10.117149-2.16796-14.45307-8.671842-29.628793L216.796048 386.619619c-2.16796-5.058574-6.503881-14.45307-13.730416-33.964714l72.265349-2.890614z m293.397318 66.484121c0-17.343684-8.671842-24.570219-29.628793-24.570219s-31.796754 7.226535-36.132675 24.570219l-60.702893-10.117149c6.503881-19.511644 13.730416-31.796754 26.738179-41.913902 18.066337-12.285109 40.468596-19.511644 72.265349-19.511645 22.402258 0 44.804517 5.058574 58.534933 12.28511 20.234298 12.285109 29.628793 31.796754 29.628794 61.425547v93.2223c0 21.679605 0 33.964714 2.16796 49.140438H570.89626v-14.45307c-20.234298 12.285109-36.132675 17.343684-62.870854 17.343684-24.570219 0-42.636556-7.226535-54.199012-19.511645-11.562456-12.285109-18.066337-26.738179-18.066338-46.249823 0-21.679605 8.671842-39.023289 22.402259-49.140438 15.898377-12.285109 38.300635-19.511644 65.761468-21.679604 11.562456-2.16796 22.402258-2.16796 44.804516-2.167961v-8.671842z m0 51.308398c-26.738179 0-40.468596 2.16796-54.199012 7.226535-11.562456 5.058574-18.066337 12.285109-18.066337 21.679605 0 12.285109 8.671842 19.511644 24.570219 19.511644 13.730416 0 26.738179-5.058574 36.132674-12.285109 6.503881-7.226535 11.562456-17.343684 11.562456-26.738179v-9.394496z m237.030346-56.366972c-13.730416-5.058574-22.402258-7.226535-31.796754-7.226535-15.898377 0-29.628793 7.226535-38.300635 19.511644-6.503881 7.226535-8.671842 14.45307-8.671842 29.628793v53.476359c0 21.679605 0 33.964714 2.167961 51.308398h-65.761468c2.16796-17.343684 2.16796-29.628793 2.16796-51.308398V401.072689c0-24.570219 0-36.855328-2.16796-51.308398h62.870854v26.738179c15.898377-21.679605 33.964714-31.796754 62.870854-31.796754 8.671842 0 15.898377 0 31.796753 5.058575l-15.175723 61.425547z m0 0" fill="#FFFFFF" p-id="5389"></path></svg>